<svg width="20" height="20" viewBox="0 0 20 20" fill="none" xmlns="http://www.w3.org/2000/svg">
<path d="M1.1018 19.9945C0.793953 19.994 0.500482 19.8642 0.292992 19.6368C0.081675 19.4112 -0.0233291 19.1062 0.0043654 18.7983L0.273238 15.8418L12.694 3.42542L16.5757 7.30596L4.15817 19.7213L1.20167 19.9901C1.16765 19.9934 1.13363 19.9945 1.1018 19.9945ZM17.3505 6.53007L13.4699 2.64953L15.7976 0.321864C16.0034 0.11579 16.2828 0 16.574 0C16.8653 0 17.1446 0.11579 17.3505 0.321864L19.6781 2.64953C19.8842 2.85537 20 3.1347 20 3.42597C20 3.71724 19.8842 3.99656 19.6781 4.2024L17.3516 6.52897L17.3505 6.53007Z" fill="#F7F9FC"/>
</svg>
