<svg width="24" height="21" viewBox="0 0 24 21" fill="none" xmlns="http://www.w3.org/2000/svg">
<path d="M12.3593 18.8271L21.0029 10.1834C21.6442 9.54236 21.9972 8.69 21.9972 7.78326C21.9972 6.87671 21.6442 6.02417 21.0029 5.38312L16.6124 0.992615C15.2889 -0.330872 13.1356 -0.330872 11.8121 0.992615L0.994263 11.8105C0.353027 12.4517 0 13.3041 0 14.2106C0 15.1174 0.353027 15.9697 0.994263 16.6108L4.61664 20.2333H24V18.8271H12.3593ZM12.8064 1.98688C13.5817 1.21179 14.8429 1.21179 15.6182 1.98688L20.0087 6.37738C20.3842 6.75293 20.5909 7.25226 20.5909 7.78326C20.5909 8.31427 20.384 8.8136 20.0087 9.18896L15.0877 14.1099L7.88562 6.90784L12.8064 1.98688ZM10.3705 18.8271H5.19928L1.98853 15.6165C1.61298 15.241 1.40625 14.7418 1.40625 14.2106C1.40625 13.6796 1.61298 13.1805 1.98853 12.8049L6.89117 7.90228L14.0934 15.1044L10.3705 18.8271Z" fill="#2E3A59"/>
</svg>
