<svg width="24" height="17" viewBox="0 0 24 17" fill="none" xmlns="http://www.w3.org/2000/svg">
<path d="M6.21032 4.48986H20.4219L17.5143 1.71032C17.105 1.31904 17.105 0.68477 17.5143 0.293497C17.9237 -0.0978879 18.5871 -0.0977766 18.9965 0.293497L23.693 4.7834C24.1023 5.17467 24.1023 5.80895 23.693 6.20022L18.9965 10.6899C18.7918 10.8856 18.5236 10.9833 18.2554 10.9833C17.9873 10.9833 17.7191 10.8855 17.5144 10.6899C17.1051 10.2986 17.1051 9.66435 17.5144 9.27308L20.422 6.49353H6.21044C3.94175 6.49353 2.096 8.25799 2.096 10.4267C2.096 12.5955 3.94175 14.36 6.21044 14.36H14.8555C15.4343 14.36 15.9035 14.8085 15.9035 15.3618C15.9035 15.9151 15.4343 16.3636 14.8555 16.3636H6.21044C2.78605 16.3636 0 13.7003 0 10.4267C0 7.15319 2.78593 4.48986 6.21032 4.48986Z" fill="#2E3A59"/>
</svg>
