<svg width="24" height="24" viewBox="0 0 24 24" fill="none" xmlns="http://www.w3.org/2000/svg">
<g clip-path="url(#clip0)">
<path d="M23.9962 5.93132C23.9832 5.79876 23.9315 5.66573 23.8408 5.55506C23.8058 5.51227 24.164 5.87315 18.4969 0.206088C18.3618 0.0709961 18.1784 7.52192e-05 17.9995 0.000122094C17.5731 0.000122094 2.53406 0.000122094 2.10929 0.000122094C0.946192 0.000122094 -6.10352e-05 0.946375 -6.10352e-05 2.10947V21.8904C-6.10352e-05 23.0535 0.946192 23.9998 2.10929 23.9998H21.8903C23.0534 23.9998 23.9996 23.0535 23.9996 21.8904C23.9997 4.81946 24.0015 5.98523 23.9962 5.93132ZM16.1716 1.40635V6.00004C16.1716 6.38774 15.8562 6.70316 15.4685 6.70316H14.5779V1.40635H16.1716ZM13.1717 1.40635V6.70316H6.65615C6.26845 6.70316 5.95303 6.38774 5.95303 6.00004V1.40635H13.1717ZM16.1716 15.0468H5.95303V14.1562C5.95303 13.7685 6.26845 13.4531 6.65615 13.4531H15.4685C15.8562 13.4531 16.1716 13.7685 16.1716 14.1562V15.0468ZM5.95303 22.5936V16.453H16.1716V22.5936H5.95303ZM22.5934 21.8904C22.5934 22.2781 22.278 22.5936 21.8903 22.5936H17.5779C17.5779 21.6769 17.5779 15.2011 17.5779 14.1562C17.5779 12.9931 16.6316 12.0468 15.4685 12.0468H6.65615C5.49305 12.0468 4.5468 12.9931 4.5468 14.1562V22.5936H2.10933C1.72163 22.5936 1.40622 22.2781 1.40622 21.8904V2.10947C1.40622 1.72177 1.72163 1.40635 2.10933 1.40635H4.5468V6.00004C4.5468 7.16313 5.49305 8.10939 6.65615 8.10939H15.4685C16.6316 8.10939 17.5779 7.16313 17.5779 6.00004V1.40635H17.7085L22.5934 6.29132V21.8904Z" fill="#2E3A59"/>
</g>
<defs>
<clipPath id="clip0">
<rect width="24" height="24" fill="white"/>
</clipPath>
</defs>
</svg>
