<svg width="24" height="18" viewBox="0 0 24 18" fill="none" xmlns="http://www.w3.org/2000/svg">
<path d="M17.7896 4.69672H3.57811L6.48572 1.78912C6.89502 1.37982 6.89502 0.716319 6.48572 0.307019C6.0763 -0.102398 5.41292 -0.102281 5.0035 0.307019L0.306975 5.00378C-0.102325 5.41308 -0.102325 6.07658 0.306975 6.48588L5.0035 11.1824C5.20821 11.3871 5.47638 11.4894 5.74455 11.4894C6.01272 11.4894 6.28089 11.387 6.4856 11.1824C6.8949 10.7731 6.8949 10.1096 6.4856 9.70031L3.578 6.79271H17.7895C20.0582 6.79271 21.9039 8.63846 21.9039 10.9071C21.9039 13.1758 20.0582 15.0216 17.7895 15.0216H9.14448C8.56563 15.0216 8.09648 15.4907 8.09648 16.0696C8.09648 16.6484 8.56563 17.1175 9.14448 17.1175H17.7895C21.2139 17.1175 23.9999 14.3315 23.9999 10.9071C23.9999 7.48275 21.214 4.69672 17.7896 4.69672Z" fill="#2E3A59"/>
</svg>
