<svg width="18" height="19" viewBox="0 0 18 19" fill="none" xmlns="http://www.w3.org/2000/svg">
    <path d="M2 19H0V18C0.00440864 14.1358 3.13583 11.0044 7 11H11C14.8642 11.0044 17.9956 14.1358 18 18V19H16V18C15.9967 15.2399 13.7601 13.0033 11 13H7C4.23995 13.0033 2.00331 15.2399 2 18V19ZM9 10C6.23858 10 4 7.76142 4 5C4 2.23858 6.23858 0 9 0C11.7614 0 14 2.23858 14 5C13.9967 7.76005 11.7601 9.99669 9 10ZM9 2C7.34315 2 6 3.34315 6 5C6 6.65685 7.34315 8 9 8C10.6569 8 12 6.65685 12 5C12 3.34315 10.6569 2 9 2Z"/>
</svg>
